#!OML:ASF E:\Style4\Style4.ASF
:FULLY-SPECIFIED
:DEGREES
2097
root 0.676464 18.0314 -1.82681 6.96253 5.84856 4.02756
lowerback 12.5126 4.10839 3.95929
upperback 4.76913 5.96328 2.65244
thorax -1.86446 2.97828 -0.273979
lowerneck 4.32618 -18.4755 -6.6707
upperneck 16.9203 -25.7413 6.8469
head 6.28069 -12.4858 1.73206
rclavicle -4.13472e-014 -2.8625e-014
rhumerus 78.1472 -1.2656 -1123.11
rradius 42.2171
rwrist 1094.66
rhand -7.03295 9.95232
rfingers 7.12502
rthumb 18.8391 -19.1554
lclavicle -4.13472e-014 -2.8625e-014
lhumerus 67.8853 43.2259 25.3474
lradius 122.797
lwrist 42.6164
lhand 4.47242 25.2371
lfingers 7.12502
lthumb 29.8666 52.8484
rfemur -20.8316 -7.50125 12.7723
rtibia 27.711
rfoot -12.5439 -19.3321
rtoes -8.21028
lfemur -19.7241 -1.52711 -25.1025
ltibia 22.0075
lfoot -10.0178 7.3436
ltoes -9.85552
2098
root 0.676024 18.0311 -1.83177 7.00409 5.80689 4.03237
lowerback 12.5467 4.07147 3.96128
upperback 4.75817 5.9174 2.66212
thorax -1.89659 2.95457 -0.262473
lowerneck 3.95275 -18.4192 -6.47445
upperneck 17.1647 -25.6364 6.57406
head 6.34916 -12.4201 1.59871
rclavicle 1.03368e-014 1.27222e-014
rhumerus 78.2503 -1.38123 -1123.55
rradius 42.6603
rwrist 1095
rhand -10.2237 10.9712
rfingers 7.12502
rthumb 15.7682 -18.4065
lclavicle 1.03368e-014 1.27222e-014
lhumerus 68.0365 43.0362 25.9919
lradius 123.203
lwrist 41.6279
lhand 3.98839 24.8545
lfingers 7.12502
lthumb 29.4046 52.5479
rfemur -20.9113 -7.42692 12.7575
rtibia 27.7199
rfoot -12.6917 -19.3045
rtoes -8.10592
lfemur -19.8021 -1.49378 -25.1079
ltibia 22.0416
lfoot -10.0614 7.33804
ltoes -9.57426
2099
root 0.676218 18.0283 -1.83814 7.05461 5.78201 4.05889
lowerback 12.5763 4.03385 4.00145
upperback 4.7736 5.87244 2.63814
thorax -1.89104 2.93287 -0.304848
lowerneck 3.72688 -18.4162 -6.34233
upperneck 17.2138 -25.6232 6.50962
head 6.37437 -12.402 1.54377
rclavicle -6.59965e-014 -1.74931e-014
rhumerus 78.3802 -1.53836 -1124.07
rradius 43.0754
rwrist 1095.47
rhand -13.0627 12.0957
rfingers 7.12502
rthumb 13.0327 -17.4772
lclavicle -6.59965e-014 -1.74931e-014
lhumerus 68.335 42.7976 26.6921
lradius 123.538
lwrist 40.7561
lhand 3.44301 24.4832
lfingers 7.12502
lthumb 28.8838 52.2669
rfemur -21.0399 -7.43503 12.7262
rtibia 27.7985
rfoot -12.7292 -19.2719
rtoes -8.36677
lfemur -19.9129 -1.46915 -25.1382
ltibia 22.1035
lfoot -10.1136 7.30308
ltoes -9.0066
2100
root 0.676139 18.0245 -1.8476 7.09936 5.75254 4.06648
lowerback 12.6337 4.00719 4.07484
upperback 4.79881 5.84654 2.60534
thorax -1.88537 2.921 -0.37865
lowerneck 3.7391 -18.4657 -6.29702
upperneck 17.0743 -25.7058 6.67988
head 6.35042 -12.4351 1.58544
rclavicle -2.70347e-014 9.54166e-015
rhumerus 78.462 -1.7387 -1124.5
rradius 43.5743
rwrist 1095.66
rhand -15.591 13.1708
rfingers 7.12502
rthumb 10.5947 -16.5421
lclavicle -2.70347e-014 9.54166e-015
lhumerus 68.6593 42.417 27.4073
lradius 123.868
lwrist 40.1361
lhand 2.82286 24.1956
lfingers 7.12502
lthumb 28.2913 52.079
rfemur -21.1886 -7.4254 12.7294
rtibia 27.9012
rfoot -12.7684 -19.2893
rtoes -7.72644
lfemur -20.0526 -1.44099 -25.1491
ltibia 22.2114
lfoot -10.117 7.28173
ltoes -8.79141
2101
root 0.674417 18.0198 -1.85978 7.17816 5.72436 4.07374
lowerback 12.6715 3.97999 4.08093
upperback 4.78901 5.81345 2.59493
thorax -1.91536 2.90382 -0.39186
lowerneck 3.95491 -18.4846 -6.23531
upperneck 16.8635 -25.7405 6.84568
head 6.26515 -12.4535 1.65362
rclavicle 1.43125e-014 -1.43125e-014
rhumerus 78.4956 -1.84324 -1125.14
rradius 44.0881
rwrist 1095.77
rhand -17.9091 14.4523
rfingers 7.12502
rthumb 8.35804 -15.3623
lclavicle 1.43125e-014 -1.43125e-014
lhumerus 68.7555 41.9442 27.8929
lradius 124.142
lwrist 39.4794
lhand 2.01349 23.7563
lfingers 7.12502
lthumb 27.5175 51.7654
rfemur -21.4026 -7.43156 12.7491
rtibia 28.0232
rfoot -12.7036 -19.2948
rtoes -7.43094
lfemur -20.2764 -1.40539 -25.1563
ltibia 22.3674
lfoot -10.0957 7.27714
ltoes -9.13112
2102
root 0.672093 18.0159 -1.87268 7.17255 5.67822 4.05125
lowerback 12.8094 3.95375 4.10748
upperback 4.79569 5.78913 2.59404
thorax -1.98078 2.89037 -0.414561
lowerneck 4.18808 -18.5049 -6.06725
upperneck 16.617 -25.7521 6.89033
head 6.13456 -12.4643 1.68462
rclavicle 1.98785e-014 -7.95139e-015
rhumerus 78.465 -1.87385 -1125.7
rradius 44.6474
rwrist 1095.97
rhand -20.3725 15.6216
rfingers 7.12502
rthumb 5.98017 -14.274
lclavicle 1.98785e-014 -7.95139e-015
lhumerus 68.7999 41.4432 28.3144
lradius 124.411
lwrist 38.7762
lhand 1.22885 23.3218
lfingers 7.12502
lthumb 26.7669 51.4481
rfemur -21.543 -7.39215 12.7791
rtibia 28.1636
rfoot -12.6925 -19.2776
rtoes -7.45309
lfemur -20.432 -1.33509 -25.1338
ltibia 22.5478
lfoot -10.0624 7.24096
ltoes -9.42326
2103
root 0.672047 18.011 -1.88401 7.18745 5.59043 4.03045
lowerback 12.8959 3.95507 4.19627
upperback 4.84743 5.80278 2.57584
thorax -1.96171 2.89858 -0.487872
lowerneck 4.22386 -18.5708 -5.90913
upperneck 16.4795 -25.8284 6.9087
head 6.07292 -12.4981 1.67774
rclavicle 5.80451e-014 -1.27222e-014
rhumerus 78.3859 -1.9676 -1126.14
rradius 45.2675
rwrist 1096.42
rhand -22.7037 16.3737
rfingers 7.12502
rthumb 3.72924 -13.5734
lclavicle 5.80451e-014 -1.27222e-014
lhumerus 68.9757 40.9402 28.8688
lradius 124.74
lwrist 38.0871
lhand 0.685578 23.3127
lfingers 7.12502
lthumb 26.2469 51.5175
rfemur -21.731 -7.40335 12.8092
rtibia 28.3321
rfoot -12.6887 -19.1985
rtoes -7.81733
lfemur -20.5973 -1.25849 -25.119
ltibia 22.7299
lfoot -10.1408 7.28341
ltoes -9.80088
